<?xml version="1.0" encoding="us-ascii" standalone="no"?><svg xmlns="http://www.w3.org/2000/svg" xmlns:xlink="http://www.w3.org/1999/xlink" contentStyleType="text/css" height="347px" preserveAspectRatio="none" style="width:993px;height:347px;background:#FFFFFF;" version="1.1" viewBox="0 0 993 347" width="993px" zoomAndPan="magnify"><defs/><g><text fill="#000000" font-family="sans-serif" font-size="14" font-weight="bold" lengthAdjust="spacing" textLength="261" x="367.5" y="27.9951">Configuration via gRPC Protocol</text><rect fill="#DDDDDD" height="290.75" style="stroke:#181818;stroke-width:0.5;" width="433.5" x="108" y="43.2969"/><text fill="#000000" font-family="sans-serif" font-size="13" font-weight="bold" lengthAdjust="spacing" textLength="43" x="303.25" y="55.3638">App-1</text><line style="stroke:#181818;stroke-width:0.5;stroke-dasharray:5.0,5.0;" x1="171" x2="171" y1="98.3828" y2="340.0469"/><line style="stroke:#181818;stroke-width:0.5;stroke-dasharray:5.0,5.0;" x1="481.5" x2="481.5" y1="98.3828" y2="340.0469"/><line style="stroke:#181818;stroke-width:0.5;stroke-dasharray:5.0,5.0;" x1="610" x2="610" y1="98.3828" y2="340.0469"/><line style="stroke:#181818;stroke-width:0.5;stroke-dasharray:5.0,5.0;" x1="816" x2="816" y1="98.3828" y2="340.0469"/><rect fill="#E2E2F0" height="34.9531" rx="2.5" ry="2.5" style="stroke:#181818;stroke-width:0.5;" width="119" x="112" y="62.4297"/><text fill="#000000" font-family="sans-serif" font-size="18" font-weight="bold" lengthAdjust="spacing" textLength="105" x="119" y="86.1377">User Code</text><rect fill="#E2E2F0" height="34.9531" rx="2.5" ry="2.5" style="stroke:#181818;stroke-width:0.5;" width="112" x="425.5" y="62.4297"/><text fill="#000000" font-family="sans-serif" font-size="18" font-weight="bold" lengthAdjust="spacing" textLength="98" x="432.5" y="86.1377">Dapr SDK</text><rect fill="#E2E2F0" height="34.9531" rx="2.5" ry="2.5" style="stroke:#181818;stroke-width:0.5;" width="75" x="573" y="62.4297"/><text fill="#000000" font-family="sans-serif" font-size="18" font-weight="bold" lengthAdjust="spacing" textLength="61" x="580" y="86.1377">daprd</text><rect fill="#E2E2F0" height="30.2969" rx="2.5" ry="2.5" style="stroke:#181818;stroke-width:0.5;" width="49" x="792" y="67.0859"/><text fill="#000000" font-family="sans-serif" font-size="14" lengthAdjust="spacing" textLength="35" x="799" y="87.0811">redis</text><polygon fill="#181818" points="469.5,161.7813,479.5,165.7813,469.5,169.7813" style="stroke:#181818;stroke-width:1.0;"/><line style="stroke:#181818;stroke-width:1.0;" x1="171.5" x2="475.5" y1="165.7813" y2="165.7813"/><text fill="#000000" font-family="sans-serif" font-size="13" lengthAdjust="spacing" textLength="286" x="178.5" y="160.7153">getConfiguration() / subscribeConfiguration()</text><path d="M5,113.3828 L5,168.3828 L167,168.3828 L167,123.3828 L157,113.3828 L5,113.3828 " fill="#FEFFDD" style="stroke:#181818;stroke-width:0.5;"/><path d="M157,113.3828 L157,123.3828 L167,123.3828 L157,113.3828 " fill="#FEFFDD" style="stroke:#181818;stroke-width:0.5;"/><text fill="#000000" font-family="sans-serif" font-size="13" lengthAdjust="spacing" textLength="141" x="11" y="130.4497">storeName="name-1"</text><text fill="#000000" font-family="sans-serif" font-size="13" lengthAdjust="spacing" textLength="72" x="11" y="145.5825">keys="[...]"</text><text fill="#000000" font-family="sans-serif" font-size="13" lengthAdjust="spacing" textLength="105" x="11" y="160.7153">metadata="[...]"</text><path d="M486,128.5156 L486,153.5156 L986,153.5156 L986,138.5156 L976,128.5156 L486,128.5156 " fill="#FEFFDD" style="stroke:#181818;stroke-width:0.5;"/><path d="M976,128.5156 L976,138.5156 L986,138.5156 L976,128.5156 " fill="#FEFFDD" style="stroke:#181818;stroke-width:0.5;"/><text fill="#000000" font-family="sans-serif" font-size="13" lengthAdjust="spacing" textLength="479" x="492" y="145.5825">GetConfigurationAlpha1() / SubscribeConfigurationAlpha1() @ Dapr service</text><polygon fill="#0000FF" points="598.5,193.9141,608.5,197.9141,598.5,201.9141" style="stroke:#0000FF;stroke-width:1.0;"/><line style="stroke:#0000FF;stroke-width:1.0;" x1="481.5" x2="604.5" y1="197.9141" y2="197.9141"/><text fill="#000000" font-family="sans-serif" font-size="13" lengthAdjust="spacing" textLength="105" x="488.5" y="192.8481">gRPC (localhost)</text><path d="M615,178.7813 L615,203.7813 L755,203.7813 L755,188.7813 L745,178.7813 L615,178.7813 " fill="#FEFFDD" style="stroke:#181818;stroke-width:0.5;"/><path d="M745,178.7813 L745,188.7813 L755,188.7813 L745,178.7813 " fill="#FEFFDD" style="stroke:#181818;stroke-width:0.5;"/><text fill="#000000" font-family="sans-serif" font-size="13" lengthAdjust="spacing" textLength="119" x="621" y="195.8481">gRPC API @ 50001</text><polygon fill="#FF0000" points="804.5,251.0469,814.5,255.0469,804.5,259.0469" style="stroke:#FF0000;stroke-width:1.0;"/><line style="stroke:#FF0000;stroke-width:1.0;" x1="610.5" x2="810.5" y1="255.0469" y2="255.0469"/><text fill="#000000" font-family="sans-serif" font-size="13" lengthAdjust="spacing" textLength="182" x="617.5" y="249.981">native protocol (remote call)</text><polygon fill="#FF0000" points="621.5,290.0469,611.5,294.0469,621.5,298.0469" style="stroke:#FF0000;stroke-width:1.0;"/><line style="stroke:#FF0000;stroke-width:1.0;stroke-dasharray:2.0,2.0;" x1="615.5" x2="815.5" y1="294.0469" y2="294.0469"/><polygon fill="#0000FF" points="492.5,304.0469,482.5,308.0469,492.5,312.0469" style="stroke:#0000FF;stroke-width:1.0;"/><line style="stroke:#0000FF;stroke-width:1.0;stroke-dasharray:2.0,2.0;" x1="486.5" x2="609.5" y1="308.0469" y2="308.0469"/><polygon fill="#181818" points="182.5,318.0469,172.5,322.0469,182.5,326.0469" style="stroke:#181818;stroke-width:1.0;"/><line style="stroke:#181818;stroke-width:1.0;stroke-dasharray:2.0,2.0;" x1="176.5" x2="480.5" y1="322.0469" y2="322.0469"/><!--SRC=[RLBFQy8m5BxdhtXq5ptKwM6NeZ9H66CmPBAJ4qcJPnjCavAaCi4_Vi_gN5kNGo7lVJ_U-zAWWaQOMxDJMULuKDR0GN78FfPpM3eRhB2QvKeYxAmDgVrcVgzCoHqlm8SZaNrmIeIgq8ow4CtACXv5Z1112LLo4w3owBR2IjmAhP0AQmPq9fzK9s-9RDF2hnPl7UI2b-vS9Y0Q2USncWH9RTcXrBMES87UymotgRDxikOU8eTI-OYnkndZQNEE138ChPXwVNW4NwLUE9LYfyMC3GWQTo6XVAp3TrxW93BqfN2-p1wFVXAj1uF1Xcu51YvvuB-L2zkfB2VwIyTtfikSZshtrR_kDy0prB7HOWSba3MsYTSFgQvmCsqdbroUlQUju3gtFlHRazJDsVALX9-6m-68dKudrX8WNSgJP3j19s1ej0D2UVsZeEUmE4kJaUxNGXrAVDDgZzXSOtnT8uvReFkt71FYZ_S3]--></g></svg>