<?xml version="1.0" encoding="us-ascii" standalone="no"?><svg xmlns="http://www.w3.org/2000/svg" xmlns:xlink="http://www.w3.org/1999/xlink" contentStyleType="text/css" height="347px" preserveAspectRatio="none" style="width:1275px;height:347px;background:#FFFFFF;" version="1.1" viewBox="0 0 1275 347" width="1275px" zoomAndPan="magnify"><defs/><g><text fill="#000000" font-family="sans-serif" font-size="14" font-weight="bold" lengthAdjust="spacing" textLength="263" x="507.5" y="27.9951">Configuration via HTTP Protocol</text><rect fill="#DDDDDD" height="290.75" style="stroke:#181818;stroke-width:0.5;" width="433.5" x="108" y="43.2969"/><text fill="#000000" font-family="sans-serif" font-size="13" font-weight="bold" lengthAdjust="spacing" textLength="43" x="303.25" y="55.3638">App-1</text><line style="stroke:#181818;stroke-width:0.5;stroke-dasharray:5.0,5.0;" x1="171" x2="171" y1="98.3828" y2="340.0469"/><line style="stroke:#181818;stroke-width:0.5;stroke-dasharray:5.0,5.0;" x1="481.5" x2="481.5" y1="98.3828" y2="340.0469"/><line style="stroke:#181818;stroke-width:0.5;stroke-dasharray:5.0,5.0;" x1="605" x2="605" y1="98.3828" y2="340.0469"/><line style="stroke:#181818;stroke-width:0.5;stroke-dasharray:5.0,5.0;" x1="811" x2="811" y1="98.3828" y2="340.0469"/><rect fill="#E2E2F0" height="34.9531" rx="2.5" ry="2.5" style="stroke:#181818;stroke-width:0.5;" width="119" x="112" y="62.4297"/><text fill="#000000" font-family="sans-serif" font-size="18" font-weight="bold" lengthAdjust="spacing" textLength="105" x="119" y="86.1377">User Code</text><rect fill="#E2E2F0" height="34.9531" rx="2.5" ry="2.5" style="stroke:#181818;stroke-width:0.5;" width="112" x="425.5" y="62.4297"/><text fill="#000000" font-family="sans-serif" font-size="18" font-weight="bold" lengthAdjust="spacing" textLength="98" x="432.5" y="86.1377">Dapr SDK</text><rect fill="#E2E2F0" height="34.9531" rx="2.5" ry="2.5" style="stroke:#181818;stroke-width:0.5;" width="75" x="568" y="62.4297"/><text fill="#000000" font-family="sans-serif" font-size="18" font-weight="bold" lengthAdjust="spacing" textLength="61" x="575" y="86.1377">daprd</text><rect fill="#E2E2F0" height="30.2969" rx="2.5" ry="2.5" style="stroke:#181818;stroke-width:0.5;" width="49" x="787" y="67.0859"/><text fill="#000000" font-family="sans-serif" font-size="14" lengthAdjust="spacing" textLength="35" x="794" y="87.0811">redis</text><polygon fill="#181818" points="469.5,161.7813,479.5,165.7813,469.5,169.7813" style="stroke:#181818;stroke-width:1.0;"/><line style="stroke:#181818;stroke-width:1.0;" x1="171.5" x2="475.5" y1="165.7813" y2="165.7813"/><text fill="#000000" font-family="sans-serif" font-size="13" lengthAdjust="spacing" textLength="286" x="178.5" y="160.7153">getConfiguration() / subscribeConfiguration()</text><path d="M5,113.3828 L5,168.3828 L167,168.3828 L167,123.3828 L157,113.3828 L5,113.3828 " fill="#FEFFDD" style="stroke:#181818;stroke-width:0.5;"/><path d="M157,113.3828 L157,123.3828 L167,123.3828 L157,113.3828 " fill="#FEFFDD" style="stroke:#181818;stroke-width:0.5;"/><text fill="#000000" font-family="sans-serif" font-size="13" lengthAdjust="spacing" textLength="141" x="11" y="130.4497">storeName="name-1"</text><text fill="#000000" font-family="sans-serif" font-size="13" lengthAdjust="spacing" textLength="72" x="11" y="145.5825">keys="[...]"</text><text fill="#000000" font-family="sans-serif" font-size="13" lengthAdjust="spacing" textLength="105" x="11" y="160.7153">metadata="[...]"</text><path d="M486,120.9492 L486,160.9492 L1268,160.9492 L1268,130.9492 L1258,120.9492 L486,120.9492 " fill="#FEFFDD" style="stroke:#181818;stroke-width:0.5;"/><path d="M1258,120.9492 L1258,130.9492 L1268,130.9492 L1258,120.9492 " fill="#FEFFDD" style="stroke:#181818;stroke-width:0.5;"/><text fill="#000000" font-family="sans-serif" font-size="13" lengthAdjust="spacing" textLength="696" x="492" y="138.0161">POST http://localhost:3500/v1.0/configuration/name-1?metadata.k1=v1&amp;metadata.k2=v2&amp;metadata.k3=v3</text><text fill="#000000" font-family="sans-serif" font-size="13" lengthAdjust="spacing" textLength="761" x="492" y="153.1489">POST http://localhost:3500/v1.0/configuration/subscribe/name-1?metadata.k1=v1&amp;metadata.k2=v2&amp;metadata.k3=v3</text><polygon fill="#0000FF" points="593.5,193.9141,603.5,197.9141,593.5,201.9141" style="stroke:#0000FF;stroke-width:1.0;"/><line style="stroke:#0000FF;stroke-width:1.0;" x1="481.5" x2="599.5" y1="197.9141" y2="197.9141"/><text fill="#000000" font-family="sans-serif" font-size="13" lengthAdjust="spacing" textLength="100" x="488.5" y="192.8481">HTTP(localhost)</text><path d="M610,178.7813 L610,203.7813 L741,203.7813 L741,188.7813 L731,178.7813 L610,178.7813 " fill="#FEFFDD" style="stroke:#181818;stroke-width:0.5;"/><path d="M731,178.7813 L731,188.7813 L741,188.7813 L731,178.7813 " fill="#FEFFDD" style="stroke:#181818;stroke-width:0.5;"/><text fill="#000000" font-family="sans-serif" font-size="13" lengthAdjust="spacing" textLength="110" x="616" y="195.8481">HTTP API @ 3500</text><polygon fill="#FF0000" points="799.5,251.0469,809.5,255.0469,799.5,259.0469" style="stroke:#FF0000;stroke-width:1.0;"/><line style="stroke:#FF0000;stroke-width:1.0;" x1="605.5" x2="805.5" y1="255.0469" y2="255.0469"/><text fill="#000000" font-family="sans-serif" font-size="13" lengthAdjust="spacing" textLength="182" x="612.5" y="249.981">native protocol (remote call)</text><polygon fill="#FF0000" points="616.5,290.0469,606.5,294.0469,616.5,298.0469" style="stroke:#FF0000;stroke-width:1.0;"/><line style="stroke:#FF0000;stroke-width:1.0;stroke-dasharray:2.0,2.0;" x1="610.5" x2="810.5" y1="294.0469" y2="294.0469"/><polygon fill="#0000FF" points="492.5,304.0469,482.5,308.0469,492.5,312.0469" style="stroke:#0000FF;stroke-width:1.0;"/><line style="stroke:#0000FF;stroke-width:1.0;stroke-dasharray:2.0,2.0;" x1="486.5" x2="604.5" y1="308.0469" y2="308.0469"/><polygon fill="#181818" points="182.5,318.0469,172.5,322.0469,182.5,326.0469" style="stroke:#181818;stroke-width:1.0;"/><line style="stroke:#181818;stroke-width:1.0;stroke-dasharray:2.0,2.0;" x1="176.5" x2="480.5" y1="322.0469" y2="322.0469"/><!--SRC=[dLBDI-j04B_lNp54aFQGfBMyIp1-e0VbmRDWFTLIDicqNRhP3RkJeD0__arRhKayQGw1dPdVntoG8ermPyrAhMidILa3ZPBmC9jDOUeisTngiL45mifQokoRy5jbAkba2PxU6Up9gPpgKWlEGd1RLU4u45n1AbULD0IrHxVCRO7BN2lam5m0V-aBnrcxGB7er3_V_-rLtilAxSDSYAQ0lOqseE1qqOCSOZtY4hsNQrncpcvPMde871RA1q9yynXUjNqai4RgZ6amX1XydVdSgGnxAM4i8MXSKSBpiGx_oHBJmF2VX_DgjlZkqs0UHT62NoMIB2J9pyWHxTHwm_3fq_CCDaHL4iVQvb9lhATaycSqYfjnD8hpjd9yLBZ-P8osuxGPdtyzBzBcelMSfCq4NitFD4vD_qPDj8OQpiyoNUFYghl0v71zWvEHOMSUXykydJx23UmDYjrk9pfmPkMbCcblsmaOzjyWL1zd3GE7vPwPTVJmGDI3X2Ukhi5s4vSVJOHXf-ZxGLronHVkFm00]--></g></svg>